# xmcd CD database file
#
# Track frame offsets:
#	150
#	18480
#	31188
#	44568
#	65465
#
# Disc length: 1087 seconds
#
# Revision: 0
# Processed by: cddbd v1.5PL3 Copyright (c) Steve Scherf et al.
# Submitted via: CDex 1.51
#
DISCID=3b043d05
DTITLE=ママレイド　ラグ - きみの瞳の中に
DYEAR=1900
DGENRE=JPop
TTITLE0=きみの瞳の中に
TTITLE1=泣きたい気持ち
TTITLE2=きみに夢中
TTITLE3=Darjeeling tea
TTITLE4=それが望みさ
EXTD=
EXTT0=
EXTT1=
EXTT2=
EXTT3=
EXTT4=
PLAYORDER=
